<?xml version="1.0" encoding="utf-8"?>
<!-- Generator: Adobe Illustrator 25.3.1, SVG Export Plug-In . SVG Version: 6.00 Build 0)  -->
<svg version="1.1" id="Layer_1" xmlns="http://www.w3.org/2000/svg" xmlns:xlink="http://www.w3.org/1999/xlink" x="0px" y="0px"
	 viewBox="0 0 328.2 174.1" style="enable-background:new 0 0 328.2 174.1;" xml:space="preserve">
<style type="text/css">
	.st0{fill:none;stroke:#353535;stroke-width:6;stroke-miterlimit:10;}
	.st1{fill:none;stroke:#353535;stroke-width:8;stroke-miterlimit:10;}
	.st2{fill:none;stroke:#353535;stroke-width:4;stroke-miterlimit:10;}
	.st3{fill:none;stroke:#353535;stroke-width:2;stroke-miterlimit:10;}
	.st4{fill:#FFFFFF;}
	.st5{fill:#3F3F3F;}
	.st6{fill:none;stroke:#FFFFFF;stroke-miterlimit:10;}
</style>
<circle class="st0" cx="160.7" cy="86.2" r="60.8"/>
<circle class="st1" cx="160.7" cy="86.2" r="71.7"/>
<circle class="st2" cx="160.7" cy="86.2" r="50.4"/>
<circle class="st3" cx="160.7" cy="86.2" r="40.9"/>
<path class="st4" d="M159.4,128L30.6,161.1c-4.5,1.2-8.9-2.3-8.9-6.9v-129c0-4.7,4.4-8.1,8.9-6.9l128.8,33.2
	c3.2,0.8,5.4,3.7,5.4,6.9V121C164.8,124.3,162.6,127.1,159.4,128z"/>
<path class="st4" d="M165.8,129l128.8,33.2c4.5,1.2,8.9-2.3,8.9-6.9v-129c0-4.7-4.4-8.1-8.9-6.9L165.8,52.4
	c-3.2,0.8-5.4,3.7-5.4,6.9V122C160.4,125.3,162.6,128.1,165.8,129z"/>
<path class="st5" d="M156.7,126.2L33.9,157.8c-4.3,1.1-8.5-2.1-8.5-6.6V28.2c0-4.5,4.2-7.7,8.5-6.6l122.8,31.6
	c3,0.8,5.1,3.5,5.1,6.6v59.8C161.8,122.7,159.7,125.4,156.7,126.2z"/>
<path class="st6" d="M153.4,124.3L37,154.3c-4.1,1.1-8.1-2-8.1-6.3V31.4c0-4.2,4-7.3,8.1-6.3l116.4,30c2.9,0.7,4.8,3.3,4.8,6.3V118
	C158.2,121,156.3,123.5,153.4,124.3z"/>
<path class="st5" d="M169.4,126.2l122.8,31.6c4.3,1.1,8.5-2.1,8.5-6.6V28.2c0-4.5-4.2-7.7-8.5-6.6L169.4,53.2
	c-3,0.8-5.1,3.5-5.1,6.6v59.8C164.3,122.7,166.4,125.4,169.4,126.2z"/>
<path class="st6" d="M173.1,124.1l115.8,29.8c4.1,1,8-2,8-6.2v-116c0-4.2-4-7.3-8-6.2L173.1,55.3c-2.8,0.7-4.8,3.3-4.8,6.2v56.3
	C168.2,120.8,170.2,123.4,173.1,124.1z"/>
<g>
	<path class="st4" d="M51.5,88.2c0-38.9,5.9-47.9,21.1-44.2c12.2,2.9,15.9,10.9,16,32.1l-5.5-0.4c-0.4-17.7-3-23.6-10.6-25.2
		c-9.4-1.9-13.1,4.8-13.1,37.7c0,32.6,3.9,39.1,13,37.2c7.7-1.6,10.3-7.7,10.6-22.3l5.5-0.5c-0.2,18.4-3.9,26.5-16.1,29.4
		C57.4,135.7,51.5,126.8,51.5,88.2z"/>
	<path class="st4" d="M117.2,88.1c0-26.5,3.3-32.8,10.2-31.1c6.4,1.5,8,8.2,8,20.4l-2.8-0.2c0-10.1-1.3-14.8-5.3-15.6
		c-4.4-0.9-6.5,3.9-6.5,26.6c0,22.5,2,27,6.7,26c3.4-0.7,4.8-3.9,5.1-5.6V94.3l-4.1,0.2v-4.7l6.9-0.1V110c-0.6,2.8-2.8,7.6-8,8.8
		C120.3,120.6,117.2,114.5,117.2,88.1z"/>
</g>
<g>
	<path class="st4" d="M183.9,62.9l4.3,48.3l5.6-50.2l3.7-0.7l6,53.5l6.5-55.9l4.4-0.9l-8.5,61.8l-4.9-1l-5.3-51.1l-5.4,49l-3.9-0.8
		l-5.6-51.4L183.9,62.9z"/>
	<path class="st4" d="M243.4,104l6.1,0.5c0,12,3.3,18.2,12,19.6c8.5,1.4,12-3.3,12-10.9c0-28-29.6-20.7-29.6-46
		c0.1-11.1,5.2-17.8,17.1-20.2c14.6-2.9,20.5,3.2,20,21.8l-7.8,0.7c0-12.8-3-17.7-12.2-16.2c-7.3,1.2-10.6,5-10.6,12.6
		c0,22,31.7,14,31.7,47.2c0,12.8-5.5,20.3-20.6,17.3C247.6,127.6,243.1,119.2,243.4,104z"/>
</g>
</svg>
